<svg width="51" height="56" viewBox="0 0 51 56" fill="none" xmlns="http://www.w3.org/2000/svg">
<path d="M49.4295 23.5396C48.8546 22.7641 48.0109 22.265 47.053 22.1305C46.0908 21.994 45.1414 22.2467 44.3734 22.8345L41.8699 24.7534L41.8688 24.7545L38.0734 27.5887L35.3577 26.507C40.2004 24.3342 43.585 19.4904 43.585 13.8668C43.585 6.22085 37.3396 0 29.6627 0C21.9858 0 15.7405 6.22085 15.7405 13.8668C15.7405 16.6381 16.5692 19.2152 17.9805 21.3837L12.4529 21.3357C12.4497 21.3357 12.4465 21.3357 12.4433 21.3357C12.4262 21.3357 12.4124 21.3442 12.3964 21.3453C12.2908 21.3496 12.1873 21.371 12.086 21.4072C12.0604 21.4168 12.0338 21.4222 12.0093 21.4338C11.9965 21.4392 11.9837 21.4402 11.9709 21.4466L5.50468 24.6391C5.50356 24.6391 5.50256 24.6391 5.50256 24.6401L1.71575 26.4612C1.67412 26.4793 1.6315 26.5038 1.58987 26.5315C0.0804746 27.5363 -0.433659 29.5097 0.393104 31.1225C0.833611 31.9801 1.5835 32.6116 2.50514 32.9006C2.86039 33.0115 3.22302 33.066 3.58353 33.066C4.16279 33.066 4.73667 32.9241 5.26243 32.6436L8.03798 31.1674L12.566 28.8292L15.2797 28.8132L4.39629 39.6444C4.39529 39.6455 4.39417 39.6455 4.39304 39.6465L1.71563 42.3132C1.08312 42.9425 0.73536 43.7777 0.73536 44.6684C0.73536 45.5581 1.08312 46.3953 1.71563 47.0258C2.36526 47.6722 3.21965 47.9965 4.07404 47.9965C4.92955 47.9965 5.78281 47.6722 6.43457 47.0258L9.06287 44.4082L12.5445 41.8086L14.3462 43.6028L10.8229 47.1111C10.8219 47.1122 10.8208 47.1122 10.8196 47.1132L8.14223 49.7799C7.50972 50.4093 7.16196 51.2444 7.16196 52.1352C7.16196 53.0248 7.50972 53.8621 8.14223 54.4926C8.79186 55.139 9.64738 55.4632 10.5018 55.4632C11.3562 55.4632 12.2117 55.139 12.8623 54.4926L15.5407 51.8259L19.8255 47.5592C19.8267 47.5581 19.8267 47.5571 19.8277 47.556L21.8469 45.556L21.8394 45.5485C21.8522 45.5357 21.8703 45.5313 21.8832 45.5176L32.2151 34.2011L39.1571 35.1889C39.2072 35.1964 39.2573 35.1995 39.3075 35.1995C39.4366 35.1995 39.5613 35.1687 39.6819 35.1228C39.7171 35.11 39.748 35.0929 39.7811 35.0759C39.8195 35.0567 39.86 35.046 39.8964 35.0215L46.3231 30.7548C46.3466 30.7388 46.3593 30.7132 46.3817 30.6962C46.4073 30.676 46.4393 30.6675 46.4627 30.645L49.0056 28.2631C50.3288 27.0233 50.5111 24.9924 49.4295 23.5396ZM4.26079 30.761C3.91416 30.9466 3.52053 30.9839 3.14402 30.8645C2.77064 30.7482 2.46776 30.4932 2.29063 30.1487C1.9685 29.5215 2.15513 28.7577 2.71939 28.3449L5.34668 27.0809L5.97919 28.9294L6.24482 29.706L4.26079 30.761ZM11.255 27.1055L8.15848 28.7056L7.64759 27.2122L7.28071 26.139L11.3342 24.1379L11.255 27.1055ZM41.4539 13.8647C41.4539 15.7015 41.0155 17.4339 40.256 18.9837L31.8932 15.1852C31.8057 14.0386 31.2106 13.0348 30.3167 12.4097L33.2447 2.68904C38.0001 4.20169 41.4539 8.63801 41.4539 13.8647ZM17.876 13.8647C17.876 7.39524 23.1646 2.13116 29.6649 2.13116C30.1706 2.13116 30.6655 2.17378 31.1551 2.23566L28.291 11.7431C28.2527 11.7419 28.2164 11.7313 28.1769 11.7313C26.1118 11.7313 24.4317 13.406 24.4317 15.4647C24.4317 17.5234 26.1118 19.1982 28.1769 19.1982C29.5657 19.1982 30.7657 18.4313 31.4132 17.309L39.1381 20.8184C36.9887 23.7112 33.5486 25.5983 29.6648 25.5983C23.1646 25.5983 17.876 20.3342 17.876 13.8647ZM29.7887 15.4647C29.7887 16.3469 29.0654 17.0648 28.1769 17.0648C27.2884 17.0648 26.5651 16.3469 26.5651 15.4647C26.5651 14.5826 27.2884 13.8647 28.1769 13.8647C29.0654 13.8647 29.7887 14.5826 29.7887 15.4647ZM4.92968 45.5132C4.45717 45.9815 3.69228 45.9805 3.2209 45.5143C2.99365 45.2871 2.86889 44.9874 2.86889 44.6684C2.86889 44.3506 2.99365 44.0508 3.2209 43.8258L5.14505 41.9089L6.84746 43.6039L4.92968 45.5132ZM11.3574 52.9801C10.8849 53.4483 10.119 53.4494 9.6475 52.9812C9.42025 52.7539 9.29549 52.4543 9.29549 52.1353C9.29549 51.8174 9.42025 51.5177 9.6475 51.2927L11.5729 49.3748L12.3783 50.1759L13.2764 51.0698L11.3574 52.9801ZM18.3208 46.0423C18.3196 46.0433 18.3186 46.0433 18.3175 46.0445L14.7878 49.5645L13.9824 48.7634L13.0843 47.8695L16.6107 44.3591C16.6107 44.3591 16.6107 44.3591 16.6107 44.3581C16.6119 44.3569 16.6129 44.3569 16.614 44.3559C16.694 44.2759 16.7441 44.1799 16.7932 44.0851C16.8071 44.0573 16.8337 44.0338 16.8455 44.0051C16.8786 43.9229 16.8839 43.8344 16.8967 43.7479C16.9031 43.6988 16.9245 43.653 16.9245 43.6028C16.9245 43.5313 16.8989 43.462 16.884 43.3915C16.8712 43.3275 16.8712 43.2624 16.8466 43.2007C16.8061 43.1004 16.7367 43.0119 16.6642 42.9254C16.644 42.9019 16.6365 42.872 16.6141 42.8497C16.6141 42.8497 16.6141 42.8497 16.613 42.8497C16.6119 42.8487 16.6119 42.8464 16.6109 42.8454L13.3969 39.6454C13.3628 39.6112 13.3191 39.5974 13.2807 39.5686C13.2242 39.5249 13.1698 39.4844 13.1068 39.4534C13.0461 39.4235 12.9842 39.4054 12.9202 39.3882C12.8519 39.369 12.7858 39.3541 12.7143 39.3487C12.6492 39.3445 12.5884 39.3509 12.5234 39.3584C12.4519 39.3669 12.3848 39.3765 12.3154 39.3989C12.2482 39.4202 12.1885 39.4532 12.1267 39.4885C12.0872 39.5109 12.0424 39.5184 12.005 39.5461L8.45836 42.1936L6.6567 40.3995L11.4547 35.6272L20.1759 44.2044L18.3208 46.0423ZM31.9584 32.009C31.9275 32.0047 31.8986 32.0165 31.8677 32.0144C31.7898 32.0101 31.7152 32.0155 31.6373 32.0282C31.5766 32.0389 31.519 32.0506 31.4613 32.0709C31.3931 32.0944 31.3312 32.1264 31.2682 32.1647C31.2085 32.201 31.1541 32.2394 31.1018 32.2874C31.0762 32.3097 31.0453 32.3205 31.0218 32.346L21.6253 42.6374L12.9692 34.1241L18.6354 28.4878C19.0525 28.0718 19.0546 27.3965 18.6386 26.9784C18.4285 26.7683 18.1523 26.6648 17.876 26.6659V26.6649L13.4386 26.6915L13.4941 23.4766L19.7022 23.53C22.2323 26.1178 25.7609 27.7317 29.6649 27.7317C30.5396 27.7317 31.393 27.641 32.2239 27.4863C32.3039 27.5503 32.3827 27.6154 32.4831 27.6559L37.3024 29.576L37.6074 31.0927L37.9637 32.8634L31.9584 32.009ZM40.0406 32.3652L39.4145 29.2495L42.3073 27.0894L43.0647 28.0942L44.2007 29.6025L40.0406 32.3652ZM47.5478 26.7033L45.8721 28.2734L44.0097 25.8009L45.6726 24.5263C45.9829 24.2874 46.3745 24.1902 46.7585 24.2404C47.1446 24.2948 47.486 24.4964 47.7185 24.8089C48.1516 25.3924 48.078 26.2063 47.5478 26.7033Z" fill="#2E2F42"/>
</svg>
